<svg id="Layer_1" data-name="Layer 1" xmlns="http://www.w3.org/2000/svg" viewBox="0 0 269.74 146.44"><defs><style>.cls-1{fill:#0b1019;stroke:#0b1019;stroke-width:6px;}.cls-1,.cls-2,.cls-3{stroke-miterlimit:10;}.cls-2,.cls-3{stroke:#000;stroke-width:3px;}.cls-3{fill:#f7d32b;}</style></defs><path class="cls-1" d="M169.68,61.56a.54.54,0,0,0-.25-.06h-1.85c0-.07,0-.12,0-.18-.78-6.71-1.49-12.71-5.86-16.86a39,39,0,0,0,4.07-26.28l-.12.06a.13.13,0,0,0,0-.06c-1.77,1-4.52,2.48-8,4.12-5.84,2.76-7.44,3-9.09,4.27a8.92,8.92,0,0,0-3,4.72,26.43,26.43,0,0,0-2.8.83,24.3,24.3,0,0,0-4.48,2.08c.53-3.61-.15-6.5-1.83-7-2.13-.58-5,2.9-6.51,7.78-.18.59-.32,1.17-.44,1.74,0-.12,0-.23,0-.35.29-5.07-1-9.26-2.88-9.36s-3.39,3.4-3.83,8c-.35-.38-.7-.77-1.07-1.16a31,31,0,0,0-6-5,8.19,8.19,0,0,0-2-2.3c-1.64-1.29-3.25-1.51-9.09-4.27-3.48-1.64-6.22-3.13-8-4.12,0,0,0,0,0,.06l-.12-.06a39,39,0,0,0,4.29,26.68h0c-4.2,3.89-4.88,9.76-4.86,16.63H94.69a.6.6,0,0,0-.6.6v1.12a.6.6,0,0,0,.6.6h.09c.54,3.57.51,8.53,2.1,13A41.78,41.78,0,0,0,99,84.2a35.45,35.45,0,0,0,9.58,14.24c2.7,2.37,3,1.66,4.74,3.45,8.27,8.47,2.49,20.34,10.11,27.25a15.38,15.38,0,0,0,10,3.65h.24c1,0,6.17-.23,9.83-3.93,6.53-6.61,5.57-21.6,8.4-24.28.09-.08,1-.93,2.22-2.15,0,0,.91-.92,1.71-1.76,6.46-6.83,9.82-17.67,9.82-17.67a36.94,36.94,0,0,0,1.13-4.32c2.37-5,2.24-10.86,2.86-14.92a.79.79,0,0,0,.48-.72v-.77A.77.77,0,0,0,169.68,61.56Zm-24.7-23-.79-.15.77-.24C145,38.31,145,38.44,145,38.57Zm-27.77.29v-.07l.06.06Z"/><path class="cls-2" d="M50.31,101.65c-1.22,0-2.66,0-4.31-.1s-3.35-.22-5.11-.44-3.5-.48-5.22-.8A25.57,25.57,0,0,1,30.93,99Q25,96.71,25,91.1V40.84a4.76,4.76,0,0,1,1.24-3.5,8.83,8.83,0,0,1,3.39-2,41.54,41.54,0,0,1,9.15-1.89,106.65,106.65,0,0,1,11.3-.59q13.78,0,21.21,4.63t7.43,14.32a13,13,0,0,1-2.8,8.34,16,16,0,0,1-7.54,5.11,18.69,18.69,0,0,1,9,5.49,14.38,14.38,0,0,1,3.61,10q0,10.67-7.92,15.77T50.31,101.65Zm-7-41.44h7.86q4.63,0,6.73-1.72A6.16,6.16,0,0,0,60,53.43a5.4,5.4,0,0,0-2.43-4.63c-1.61-1.14-4-1.72-7.26-1.72-1.08,0-2.31,0-3.71.11a27.79,27.79,0,0,0-3.29.32Zm0,26.27a20.07,20.07,0,0,0,3.88.59c1.58.11,3.08.16,4.52.16a13.29,13.29,0,0,0,7.16-1.78,6.05,6.05,0,0,0,2.85-5.54c0-2.37-.79-4-2.37-5.06s-4-1.51-7.21-1.51H43.31Z"/><path class="cls-3" d="M48.91,99.65c-1.22,0-2.66,0-4.31-.11s-3.35-.22-5.11-.43-3.5-.49-5.22-.81A25.57,25.57,0,0,1,29.53,97q-5.91-2.26-5.92-7.86V38.83a4.76,4.76,0,0,1,1.24-3.5,9.08,9.08,0,0,1,3.39-2,41,41,0,0,1,9.15-1.88,106.65,106.65,0,0,1,11.3-.59q13.79,0,21.21,4.62t7.43,14.32a13,13,0,0,1-2.8,8.34A16,16,0,0,1,67,63.27a18.54,18.54,0,0,1,9,5.49,14.36,14.36,0,0,1,3.61,10q0,10.65-7.91,15.76T48.91,99.65Zm-7-41.44h7.86c3.09,0,5.33-.58,6.73-1.72a6.17,6.17,0,0,0,2.1-5.06,5.41,5.41,0,0,0-2.42-4.63q-2.43-1.72-7.27-1.73c-1.08,0-2.31,0-3.71.11a25.49,25.49,0,0,0-3.29.33Zm0,26.26a19.32,19.32,0,0,0,3.88.59c1.58.11,3.08.16,4.52.16a13.38,13.38,0,0,0,7.16-1.77,6.06,6.06,0,0,0,2.85-5.54q0-3.55-2.37-5.06t-7.21-1.51H41.91Z"/><path class="cls-2" d="M245.89,100.68a28.09,28.09,0,0,1-3.71.65,38.75,38.75,0,0,1-5,.32,22.59,22.59,0,0,1-4.36-.37,7.68,7.68,0,0,1-3.17-1.35,5.78,5.78,0,0,1-1.94-2.69,13.11,13.11,0,0,1-.65-4.52V75.93H206.39v24.75a28,28,0,0,1-3.72.65,38.49,38.49,0,0,1-5,.32,22.52,22.52,0,0,1-4.36-.37,7.73,7.73,0,0,1-3.18-1.35,5.76,5.76,0,0,1-1.93-2.69,13.11,13.11,0,0,1-.65-4.52V35.89c.79-.15,2-.34,3.77-.6a34.41,34.41,0,0,1,5-.37,22.59,22.59,0,0,1,4.36.37,7.82,7.82,0,0,1,3.17,1.35,5.76,5.76,0,0,1,1.94,2.69,13.15,13.15,0,0,1,.65,4.52V61.07h20.66V35.89c.79-.15,2-.34,3.77-.6a34.41,34.41,0,0,1,5-.37,22.52,22.52,0,0,1,4.36.37,7.8,7.8,0,0,1,3.18,1.35,5.9,5.9,0,0,1,1.94,2.69,13.18,13.18,0,0,1,.64,4.52Z"/><path class="cls-3" d="M243.91,98.66a30.3,30.3,0,0,1-3.71.64,38.78,38.78,0,0,1-5,.33,22.53,22.53,0,0,1-4.36-.38,7.68,7.68,0,0,1-3.17-1.35,5.78,5.78,0,0,1-1.94-2.69,13.14,13.14,0,0,1-.64-4.52V73.9H204.41V98.66a30.3,30.3,0,0,1-3.71.64,38.78,38.78,0,0,1-5,.33,22.53,22.53,0,0,1-4.36-.38,7.62,7.62,0,0,1-3.17-1.35,5.71,5.71,0,0,1-1.94-2.69,13.11,13.11,0,0,1-.65-4.52V33.86c.79-.14,2.05-.34,3.77-.59a34.46,34.46,0,0,1,4.95-.38,22.53,22.53,0,0,1,4.36.38,7.91,7.91,0,0,1,3.18,1.34,5.87,5.87,0,0,1,1.93,2.69,13.15,13.15,0,0,1,.65,4.52V59.05h20.67V33.86c.78-.14,2-.34,3.76-.59a34.68,34.68,0,0,1,4.95-.38,22.38,22.38,0,0,1,4.36.38,7.79,7.79,0,0,1,3.18,1.34,5.88,5.88,0,0,1,1.94,2.69,13.18,13.18,0,0,1,.64,4.52Z"/><rect x="59.68" y="54.92" width="9.97" height="4.88" rx="2.17" transform="translate(150.42 68.11) rotate(145.57)"/><rect x="57.99" y="40.41" width="9.97" height="4.88" rx="2.17" transform="translate(35.26 -28.1) rotate(34.43)"/><rect x="61.4" y="85.93" width="9.97" height="4.88" rx="2.17" transform="translate(171.1 123.73) rotate(145.57)"/><rect x="60.72" y="69.43" width="9.97" height="4.88" rx="2.17" transform="translate(52.14 -24.56) rotate(34.43)"/><rect x="44.3" y="62.5" width="9.97" height="4.88" rx="2.17" transform="translate(98.58 129.87) rotate(-180)"/><rect x="44.3" y="89.74" width="9.97" height="4.88" rx="2.17" transform="translate(98.58 184.36) rotate(-180)"/><rect x="44.3" y="35.9" width="9.97" height="4.88" rx="2.17" transform="translate(98.58 76.67) rotate(-180)"/><rect x="230.16" y="42.63" width="9.97" height="4.88" rx="2.17" transform="translate(280.21 -190.06) rotate(90)"/><rect x="230.16" y="56.77" width="9.97" height="4.88" rx="2.17" transform="translate(294.35 -175.93) rotate(90)"/><rect x="230.16" y="70.9" width="9.97" height="4.88" rx="2.17" transform="translate(308.48 -161.8) rotate(90)"/><rect x="230.16" y="85.98" width="9.97" height="4.88" rx="2.17" transform="translate(323.56 -146.72) rotate(90)"/><rect x="189.83" y="42.14" width="9.97" height="4.88" rx="2.17" transform="translate(239.4 -150.23) rotate(90)"/><rect x="189.83" y="56.28" width="9.97" height="4.88" rx="2.17" transform="translate(253.54 -136.1) rotate(90)"/><rect x="189.83" y="70.41" width="9.97" height="4.88" rx="2.17" transform="translate(267.67 -121.96) rotate(90)"/><rect x="189.83" y="85.49" width="9.97" height="4.88" rx="2.17" transform="translate(282.75 -106.89) rotate(90)"/></svg>